<?xml version="1.0" encoding="UTF-8"?>
<svg width="512" height="512" version="1.1" viewBox="0 0 512 512" xmlns="http://www.w3.org/2000/svg">
 <defs>
  <linearGradient id="linearGradient4574" x1="14.737" x2="41.417" y1="14.69" y2="41.37" gradientTransform="matrix(8.5002 0 0 8.5002 52 52.001)" gradientUnits="userSpaceOnUse">
   <stop stop-color="#1753a0" offset="0"/>
   <stop stop-color="#000a2f" offset="1"/>
  </linearGradient>
 </defs>
 <path d="m0 0h512v512h-512z" fill="url(#linearGradient4574)" stroke-width="8.5002" style="paint-order:stroke fill markers"/>
 <path d="m231.31 70.876c-40.97-0.0026-74.185 33.206-74.191 74.176 0.0179 2.2677 0.13974 4.5335 0.36525 6.79-5.8031-1.7574-11.833-2.6525-17.896-2.6562-34.171 8e-4 -61.872 27.702-61.873 61.874 0.04293 33.134 26.179 60.354 59.283 61.741 84.373 0.30023 168.71 0.18462 241.34 0.41506 31.347-2e-3 56.759-25.413 56.76-56.76-2e-3 -31.347-25.413-56.76-56.76-56.76-3.8329 0.0178-7.654 0.42389-11.405 1.2119 1.4693-4.634 2.2195-9.4652 2.2246-14.327-2e-3 -26.267-21.296-47.561-47.563-47.563-9.4756 0.01453-18.73 2.8588-26.579 8.1679-13.351-22.482-37.552-36.276-63.699-36.308z" fill="#eef3f9" stroke-width="8.5002" style="paint-order:stroke fill markers"/>
 <path d="m375.51 159.61c-2.6273 3e-3 -5.1856 0.12827-7.6367 0.34867 42.068 1.5938 41.122 53.539-1.378 53.539h-170c-42.5 0-59.499 17-59.499 59.5l242.41 239h132.59v-250.51l-85.054-74.439c-11.311-21.491-33.04-27.465-51.431-27.442z" opacity=".25"/>
 <g transform="matrix(6.6758 6.6759 -6.6758 6.6759 345.13 -44.461)">
  <g stroke-width=".7746">
   <path d="m21 33h6v8l-3 5-3-5z" fill="#f4dd10"/>
   <rect x="21" y="29" width="6" height="3" fill="#f41610" style="paint-order:stroke fill markers"/>
   <path d="m25 29.047v11.953l-1 5 3-5v-12z" opacity=".25"/>
  </g>
  <path d="m20.998 41 3.0008 5.0013 3.0008-5.0013z" opacity=".33" stroke-width="1.937"/>
  <path d="m22.8 44 1.2 2 1.2-2z" opacity=".33" stroke-width=".7746"/>
 </g>
</svg>
