<svg version="1.1" viewBox="0 0 512 512" xmlns="http://www.w3.org/2000/svg">
 <defs>
  <linearGradient id="linearGradient4574" x1="14.737" x2="41.417" y1="14.69" y2="41.37" gradientTransform="scale(10.667)" gradientUnits="userSpaceOnUse">
   <stop stop-color="#1753a0" offset="0"/>
   <stop stop-color="#000a2f" offset="1"/>
  </linearGradient>
 </defs>
 <circle cx="256" cy="256" r="256" fill="url(#linearGradient4574)" stroke-width="10.667" style="paint-order:stroke fill markers"/>
 <g transform="translate(144)">
  <path d="m96 352 96-256 96 256h-72l-24 32-24-32z" fill="#d6e7ff"/>
  <path d="m192 384v-288l-24 256z" opacity=".3"/>
  <path d="m192 384v-288l24 256z" fill="#fff" opacity=".3"/>
 </g>
 <g transform="translate(-16)">
  <path d="m96 352 96-256 96 256h-72l-24 32-24-32z" fill="#f0f6ff"/>
  <path d="m192 384v-288l-24 256z" opacity=".3"/>
  <path d="m192 384v-288l24 256z" fill="#fff" opacity=".3"/>
 </g>
 <path d="m176 96 96 256h-72l-24 32-24-32h-72l185.85 159.3a256 256 0 0 0 245.09-240.37l-174.93-174.93 96 256-256-256z" opacity=".25"/>
</svg>
